<?xml version="1.0" encoding="UTF-8"?>
<!DOCTYPE svg PUBLIC "-//W3C//DTD SVG 1.1//EN" "http://www.w3.org/Graphics/SVG/1.1/DTD/svg11.dtd">
<!-- Creator: CorelDRAW -->
<svg xmlns="http://www.w3.org/2000/svg" xml:space="preserve" width="2048px" height="2048px" style="shape-rendering:geometricPrecision; text-rendering:geometricPrecision; image-rendering:optimizeQuality; fill-rule:evenodd; clip-rule:evenodd"
viewBox="0 0 2048 2048"
 xmlns:xlink="http://www.w3.org/1999/xlink">
 <defs>
  <style type="text/css">
   
    .fil2 {fill:none}
    .fil1 {fill: rgb(255,105,180)  }
    .fil0 {fill: rgb(37, 149, 194);fill-rule:nonzero}
   
  </style>
 </defs>
 <g id="Layer_x0020_1">
  <metadata id="CorelCorpID_0Corel-Layer"/>
  <g id="_247746048">
   <path id="_247745304" class="fil0" d="M1535.64 1792l-1023.63 0c-17.6728,0 -32.0008,-14.328 -32.0008,-32.0008l0 -1472c0,-17.6728 14.328,-32.0008 32.0008,-32.0008l704 0 0 255.999c0,35.263 28.7362,64.0004 63.9993,64.0004l287.635 0 0 1184c0,17.6728 -14.328,32.0008 -32.0008,32.0008zm-376.285 -701.252c-34.6855,34.6866 -82.6052,56.1426 -135.533,56.1426 -52.9276,0 -100.847,-21.4559 -135.534,-56.1414 -34.6855,-34.6866 -56.1414,-82.6064 -56.1414,-135.534 0,-26.3799 5.33032,-51.5174 14.9717,-74.3906l-143.325 -82.8768c-23.3563,47.4367 -36.476,100.82 -36.476,157.266 0,98.4438 39.9048,187.571 104.419,252.085 64.5142,64.5142 153.64,104.419 252.084,104.419 98.4438,0 187.571,-39.9048 252.085,-104.419 16.3382,-16.3382 31.0984,-34.2555 44.0315,-53.5028l-143.358 -82.7906c-5.29134,6.96969 -11.048,13.5662 -17.2252,19.7421zm-111.534 -491.242l0 165.522c43.3335,5.413 82.1753,25.2945 111.535,54.6532 34.6855,34.6866 56.1414,82.6064 56.1414,135.534 0,26.3918 -5.33504,51.5398 -14.9858,74.4213l143.362 82.7942c23.341,-47.4237 36.4512,-100.789 36.4512,-157.217 0,-98.4438 -39.9048,-187.57 -104.419,-252.084 -59.2288,-59.2288 -139.202,-97.715 -228.085,-103.624zm-159.533 220.175c29.3599,-29.3587 68.1993,-49.239 111.533,-54.6532l0 -165.522c-88.8827,5.90906 -168.855,44.3953 -228.084,103.624 -16.3028,16.3028 -31.0347,34.1776 -43.9477,53.3776l143.31 82.8686c5.28071,-6.95197 11.0256,-13.5319 17.1886,-19.6949zm-184.515 749.031c-13.2543,0 -24,10.7457 -24,24 0,13.2543 10.7457,24 24,24l640.002 0c13.2543,0 24,-10.7457 24,-24 0,-13.2543 -10.7457,-24 -24,-24l-640.002 0zm0 -171.251c-13.2543,0 -24,10.7457 -24,24 0,13.2543 10.7457,24 24,24l640.002 0c13.2543,0 24,-10.7457 24,-24 0,-13.2543 -10.7457,-24 -24,-24l-640.002 0z"/>
   <path id="_247746024" class="fil1" d="M1280 544l288 0 -320 -288 0 255.999c0,17.6032 14.3988,32.0008 31.9996,32.0008z"/>
  </g>
 </g>
 <rect class="fil2" width="2048" height="2048"/>
</svg>
