<svg xmlns="http://www.w3.org/2000/svg" viewBox="0 0 256 256"><defs><style>.cls-1{fill:#1d384d;}</style></defs><title>api</title><g id="icons_without_caption" data-name="icons without caption"><g id="API"><path class="cls-1" d="M38.93,44.1V196h73l1.21-4H42.93V82.91H154.31v60.36l4,2.29V44.1Zm4,34.81V48.1H154.31V78.91Z"/><rect class="cls-1" x="59.32" y="116.19" width="80.17" height="4"/><rect class="cls-1" x="59.32" y="96.39" width="80.17" height="4"/><rect class="cls-1" x="59.32" y="135.69" width="40.08" height="4"/><rect class="cls-1" x="59.06" y="155.2" width="27.24" height="4"/><rect class="cls-1" x="59.06" y="174.7" width="21.25" height="4"/><path class="cls-1" d="M144,156.71a18.31,18.31,0,1,0,8.58,11.07A18.28,18.28,0,0,0,144,156.71Zm3.35,23a14.35,14.35,0,0,1-12.44,7.21,14.32,14.32,0,0,1-12.41-21.4A14.3,14.3,0,0,1,142,160.19a14.31,14.31,0,0,1,5.33,19.51Z"/><path class="cls-1" d="M161.8,188a29.64,29.64,0,0,0,1.39-2.76l11.08-2.86-.57-21.57-11.22-2.27a30.93,30.93,0,0,0-2.12-3.56l3.3-10.94-5.35-3-4-2.29-9.39-5.36-7.75,8.4a30.34,30.34,0,0,0-4.86,0l-7.84-8.32-18.63,10.89,3.42,10.92c-.44.66-.86,1.33-1.25,2a27.22,27.22,0,0,0-1.39,2.75l-11.08,2.86.57,21.57,11.21,2.27a31.28,31.28,0,0,0,2.13,3.56l-.52,1.72-1.2,4-1.57,5.22,18.73,10.7,7.75-8.4a30.33,30.33,0,0,0,4.86,0l7.84,8.32L164,200.89,160.55,190C161,189.32,161.41,188.65,161.8,188Zm-1.91-5.2a27.28,27.28,0,0,1-1.56,3.21l0,0a27,27,0,0,1-1.58,2.46l-.59.81,2.09,6.7,1,3.07-13.12,7.68-7-7.45-1,.11a26.85,26.85,0,0,1-6,0l-1-.1-6.94,7.52-13.21-7.54,1-3.33,1.21-4,.74-2.47-.59-.81a26.38,26.38,0,0,1-2.76-4.62l-.43-.91-10-2-.41-15.21,9.92-2.55.38-.93a27.43,27.43,0,0,1,1.56-3.22,28.53,28.53,0,0,1,1.61-2.49l.58-.81-3.06-9.77,13.13-7.68,7,7.45,1-.12a27.27,27.27,0,0,1,6,0l1,.11,6.94-7.53,8.61,4.91,4,2.29.6.34-.6,2L156,155.71l.6.8a24.08,24.08,0,0,1,1.75,2.71c.36.62.69,1.25,1,1.9l.43.91,10,2,.41,15.2-9.92,2.57Z"/><path class="cls-1" d="M208.32,139.37c.31-.54.6-1.11.87-1.69l7.88-2-.42-16-8-1.62a21.85,21.85,0,0,0-1.22-2l2.35-7.79-13.86-7.91-5.52,6a21.26,21.26,0,0,0-2.88,0L182,100.4l-13.78,8.06,2.43,7.77c-.25.39-.5.79-.73,1.2s-.6,1.11-.87,1.69l-7.88,2,.42,16,8,1.61a23.23,23.23,0,0,0,1.21,2l-2.34,7.78,13.86,7.92,5.52-6a21.34,21.34,0,0,0,2.88,0l5.58,5.93L210,148.33l-2.43-7.76C207.84,140.17,208.09,139.78,208.32,139.37Zm-2.43-4.14a17.27,17.27,0,0,1-1,2.16,17.49,17.49,0,0,1-1.07,1.67l-.59.81,2.07,6.62L197,151.34l-4.76-5.05-1,.11a18.2,18.2,0,0,1-4,0l-1-.1-4.7,5.09-8.33-4.76,2-6.63-.59-.81a18.15,18.15,0,0,1-1.86-3.11l-.42-.91-6.81-1.37-.25-9.6,6.72-1.73.37-.93a18.8,18.8,0,0,1,1-2.16,18.26,18.26,0,0,1,1.08-1.67l.59-.82L173,110.31l8.28-4.85,4.76,5,1-.12a18.09,18.09,0,0,1,4,0l1,.11,4.7-5.1,8.33,4.76-2,6.64.6.8a17.88,17.88,0,0,1,1.85,3.1l.43.91,6.8,1.38.26,9.59-6.72,1.74Z"/><path class="cls-1" d="M195.71,116.83a13.32,13.32,0,1,0,5,18.18A13.37,13.37,0,0,0,195.71,116.83ZM197.2,133a9.34,9.34,0,1,1-3.48-12.73A9.37,9.37,0,0,1,197.2,133Z"/></g></g></svg>