<?xml version="1.0" encoding="UTF-8"?>
<!DOCTYPE svg PUBLIC "-//W3C//DTD SVG 1.1//EN" "http://www.w3.org/Graphics/SVG/1.1/DTD/svg11.dtd">
<!-- Creator: CorelDRAW -->
<svg xmlns="http://www.w3.org/2000/svg" xml:space="preserve" width="2048px" height="2048px" style="shape-rendering:geometricPrecision; text-rendering:geometricPrecision; image-rendering:optimizeQuality; fill-rule:evenodd; clip-rule:evenodd"
viewBox="0 0 2048 2048"
 xmlns:xlink="http://www.w3.org/1999/xlink">
 <defs>
  <style type="text/css">

    .fil7 {fill:none}
    .fil3 {fill:rgb(255,105,180, 1)}
    .fil0 {fill:rgb(255,105,180, 1)}
    .fil2 {fill:rgb(255,105,180, 1)}
    .fil1 {fill:rgb(255,105,180, 1)}
    .fil5 {fill:#fff}
    .fil6 {fill:#fff}
    .fil4 {fill:#fff}

  </style>
 </defs>
 <g id="Layer_x0020_1">
  <metadata id="CorelCorpID_0Corel-Layer"/>
  <g id="_490124608">
   <path id="_490124584" class="fil0" d="M938.505 255.999l170.99 0 37.1244 259.865c99.4324,23.9091 187.791,76.2497 256.006,147.926l243.735 -97.8331 85.4953 148.082 -206.469 162.069c13.813,46.8945 21.2504,96.5209 21.2504,147.892 0,51.3685 -7.44568,100.991 -21.2575,147.886l206.477 162.072 -85.4953 148.083 -243.699 -97.819c-68.2264,71.6941 -156.604,124.035 -256.048,147.945l-37.1174 259.833 -170.991 0 -37.1244 -259.865c-99.4324,-23.9091 -187.792,-76.2497 -256.006,-147.926l-243.735 97.8343 -85.4953 -148.083 206.469 -162.069c-13.813,-46.8945 -21.2504,-96.5209 -21.2504,-147.892 0,-51.3709 7.43268,-100.999 21.2492,-147.892l-206.469 -162.065 85.4953 -148.084 243.736 97.832c68.2229,-71.6741 156.573,-124.016 256.005,-147.925l37.1244 -259.866z"/>
   <path id="_490124200" class="fil1" d="M966.258 287.999l-36.2729 253.901 -21.124 5.07874c-91.8414,22.0843 -175.217,70.4906 -240.308,138.874l-14.9599 15.7181 -238.118 -95.5772 -57.743 100.015 201.708 158.328 -6.13347 20.8158c-13.2874,45.0992 -19.9441,91.8367 -19.9441,138.848 0,47.0138 6.66142,93.7489 19.9465,138.851l6.13111 20.8146 -201.706 158.33 57.7418 100.013 238.119 -95.5796 14.961 15.7193c65.0847,68.3882 148.469,116.791 240.307,138.874l21.124 5.07874 36.2729 253.899 115.484 0 36.2658 -253.868 21.124 -5.07874c91.8532,-22.0855 175.256,-70.4906 240.349,-138.892l14.9599 -15.7217 238.084 95.5654 57.7418 -100.013 -201.715 -158.334 6.13111 -20.8146c13.2839,-45.1004 19.9536,-91.832 19.9536,-138.845 0,-47.0138 -6.66142,-93.7489 -19.9465,-138.851l-6.13111 -20.8146 201.706 -158.33 -57.7418 -100.012 -238.119 95.5784 -14.961 -15.7193c-65.0847,-68.3871 -148.468,-116.791 -240.307,-138.874l-21.124 -5.07874 -36.2729 -253.899 -115.482 0z"/>
   <path id="_490124488" class="fil2" d="M553.307 885.152c-13.2874,45.0992 -19.9441,91.8367 -19.9441,138.848 0,47.0138 6.66142,93.7489 19.9465,138.851l6.13111 20.8146 -201.706 158.33 57.7418 100.013 238.119 -95.5796 14.961 15.7193c65.0847,68.3882 148.469,116.791 240.307,138.874l21.124 5.07874 36.2729 253.899 57.7406 0 0 -1472 -57.7418 0 -36.2729 253.901 -21.124 5.07874c-91.8414,22.0843 -175.217,70.4906 -240.308,138.874l-14.9599 15.7181 -238.118 -95.5772 -57.743 100.015 201.708 158.328 -6.13347 20.8158z"/>
   <path id="_490124320" class="fil3" d="M901.38 515.866c-99.4324,23.9091 -187.782,76.2508 -256.005,147.925l-243.736 -97.832 -85.4953 148.084 206.469 162.065c-13.8165,46.8933 -21.2492,96.5209 -21.2492,147.892 0,51.3709 7.43741,100.997 21.2504,147.892l-206.469 162.069 85.4953 148.083 243.735 -97.8343c68.2146,71.6764 156.574,124.017 256.006,147.926l37.1244 259.865 85.4942 0 0 -31.9996 -57.7406 0 -36.2729 -253.899 -21.124 -5.07874c-91.8379,-22.0831 -175.223,-70.4859 -240.307,-138.874l-14.961 -15.7193 -238.119 95.5796 -57.7418 -100.013 201.706 -158.33 -6.13111 -20.8146c-13.285,-45.1016 -19.9465,-91.8367 -19.9465,-138.851 0,-47.0115 6.6567,-93.7489 19.9441,-138.848l6.13347 -20.8158 -201.708 -158.328 57.743 -100.015 238.118 95.5772 14.9599 -15.7181c65.0918,-68.3835 148.467,-116.79 240.308,-138.874l21.124 -5.07874 36.2729 -253.901 57.7418 0 0 -31.9996 -85.4953 0 -37.1244 259.866z"/>
   <g>
    <polygon id="_490124152" class="fil4" points="1024,937.398 1289.04,848.221 1024,774.442 758.957,848.221 "/>
    <polygon id="_490124176" class="fil5" points="1024,1273.56 1024,937.398 758.957,848.221 758.957,1184.38 "/>
    <polygon id="_490124008" class="fil6" points="1289.04,1184.38 1289.04,848.221 1024,937.398 1024,1273.56 "/>
   </g>
  </g>
 </g>
 <rect class="fil7" width="2048" height="2048"/>
</svg>
