<?xml version="1.0" encoding="iso-8859-1"?>
<!-- Generator: Adobe Illustrator 19.0.1, SVG Export Plug-In . SVG Version: 6.00 Build 0)  -->
<svg version="1.1" xmlns="http://www.w3.org/2000/svg" xmlns:xlink="http://www.w3.org/1999/xlink" x="0px" y="0px"
	 viewBox="0 0 128 128" style="enable-background:new 0 0 128 128;" xml:space="preserve">
<g id="_x31_">
	<path id="icon" style="fill:#2A2B2B;" d="M115.707,14.873C114.625,0.721,68.654,0,59.347,0C49.927,0,2.941,0.744,2.941,15.392
		v93.837l1.825,1.352c8.541,6.378,30.039,12.823,54.58,12.823c3.11,0,6.152-0.113,9.149-0.293c-2.276-2.637-4.192-5.589-5.634-8.789
		c-1.149,0.045-2.321,0.068-3.515,0.068c-21.724,0-39.797-5.431-47.392-9.848v-20.71c10.141,4.124,27.628,6.648,47.392,6.648h1.239
		c0.361-1.555,0.834-3.065,1.42-4.53c-0.879,0.023-1.758,0.023-2.659,0.023c-19.989,0-38.445-2.817-47.392-7.031
		c-0.023-0.023-0.068-0.045-0.09-0.045h0.09V53.161c10.141,4.101,27.628,6.625,47.392,6.625c19.763,0,37.251-2.524,47.391-6.625
		v10.884c3.223,0.947,6.242,2.344,9.014,4.101V15.392C115.752,15.211,115.752,15.054,115.707,14.873z M59.347,9.014
		c25.645,0,41.487,3.763,46.287,6.378c-4.8,2.591-20.642,6.355-46.287,6.355s-41.487-3.763-46.287-6.355
		C17.859,12.777,33.679,9.014,59.347,9.014z M106.738,48.248c-8.946,4.214-27.425,7.031-47.391,7.031s-38.445-2.817-47.392-7.031
		c-0.023-0.023-0.023-0.023-0.045-0.023h0.045V24.631c14.13,5.746,40.586,6.13,47.392,6.13c6.806,0,33.262-0.383,47.391-6.13v23.594
		h0.045C106.761,48.225,106.761,48.225,106.738,48.248z M111.606,74.704c-2.186-1.397-4.552-2.501-7.099-3.245
		c-2.637-0.789-5.431-1.217-8.315-1.217c-12.304,0-22.806,7.662-26.952,18.501c-0.473,1.149-0.834,2.344-1.127,3.561
		c-0.541,2.186-0.811,4.462-0.811,6.806c0,4.282,0.924,8.338,2.614,11.989c1.127,2.524,2.637,4.868,4.439,6.941
		C79.651,124.147,87.47,128,96.192,128c15.932,0,28.868-12.935,28.868-28.89C125.059,88.834,119.696,79.82,111.606,74.704z
		 M111.966,102.625H99.684v12.282h-7.008v-12.282H80.394v-7.009h12.282V83.335h7.008v12.282h12.282V102.625z"/>
</g>
<g id="Layer_1">
</g>
</svg>
