<?xml version="1.0" ?><!DOCTYPE svg  PUBLIC '-//W3C//DTD SVG 1.1//EN'  'http://www.w3.org/Graphics/SVG/1.1/DTD/svg11.dtd'><svg enable-background="new 0 0 75 75" height="75px" id="Layer_1" version="1.1" viewBox="0 0 85 75" width="75px" xml:space="preserve" xmlns="http://www.w3.org/2000/svg" xmlns:xlink="http://www.w3.org/1999/xlink"><g><g><path d="M9.817,69.561c-1.168,0-2.268-0.455-3.095-1.282c-0.827-0.826-1.283-1.925-1.283-3.095    s0.456-2.269,1.283-3.095l35.46-33.674c0.197-0.187,0.48-0.252,0.739-0.172l2.551,0.793c0.236,0.073,0.42,0.258,0.494,0.494    l0.792,2.549c0.081,0.259,0.015,0.542-0.172,0.739L12.926,68.265C12.085,69.105,10.986,69.561,9.817,69.561z M42.896,29.806    L7.769,63.164c-0.53,0.53-0.83,1.252-0.83,2.021s0.3,1.491,0.843,2.034c1.087,1.086,2.981,1.086,4.07,0l33.342-35.114    l-0.544-1.752L42.896,29.806z" fill="#ffffff"/></g><g><path d="M50.276,40.702c-0.17,0-0.341-0.013-0.512-0.041c-0.688-0.11-1.312-0.427-1.801-0.917    c-0.377-0.38-0.65-0.829-0.811-1.336l-2.502-8.056l-8.051-2.502c-1.197-0.372-2.063-1.374-2.26-2.614    c-0.194-1.22,0.333-2.47,1.343-3.183l6.882-4.868l-0.107-8.428c-0.015-1.255,0.669-2.389,1.786-2.959    c1.076-0.552,2.466-0.435,3.442,0.291l6.756,5.044l7.984-2.708c1.283-0.432,2.818,0.133,3.672,1.324    c0.62,0.865,0.794,1.896,0.478,2.827l-2.707,7.983l5.043,6.754c0.751,1.012,0.862,2.332,0.291,3.445    c-0.561,1.101-1.68,1.787-2.921,1.787c0,0,0,0,0,0l-8.465-0.108l-4.868,6.881C52.337,40.184,51.338,40.702,50.276,40.702z     M45.727,6.94c-0.278,0-0.555,0.066-0.801,0.193c-0.607,0.31-0.978,0.924-0.969,1.604l0.112,8.822    c0.003,0.247-0.115,0.479-0.317,0.622l-7.204,5.096C36.001,23.664,35.715,24.34,35.82,25c0.107,0.673,0.576,1.216,1.224,1.417    l8.428,2.619c0.236,0.073,0.42,0.258,0.494,0.494l2.617,8.428c0.087,0.273,0.236,0.52,0.443,0.728    c0.263,0.263,0.601,0.435,0.975,0.495c0.663,0.104,1.337-0.183,1.722-0.727l5.096-7.204c0.143-0.202,0.376-0.328,0.622-0.317    l8.824,0.113l0,0c0.689,0,1.297-0.371,1.601-0.969c0.305-0.595,0.242-1.327-0.159-1.867l-5.278-7.068    c-0.147-0.198-0.188-0.456-0.109-0.689l2.834-8.357c0.159-0.468,0.058-1.004-0.276-1.472c-0.479-0.669-1.299-1.003-1.972-0.776    l-8.357,2.834c-0.234,0.078-0.492,0.038-0.689-0.109l-7.071-5.279C46.484,7.065,46.107,6.94,45.727,6.94z" fill="#ffffff"/></g></g></svg>