<svg xmlns="http://www.w3.org/2000/svg" id="Layer_1" data-name="Layer 1" viewBox="0 0 200 200"><defs><style>.cls-1{fill:#ffffff;}</style></defs><title>Interface</title><path class="cls-1" d="M100,169.54a69.77,69.77,0,1,1,69.77-69.77A69.85,69.85,0,0,1,100,169.54ZM100,32a67.77,67.77,0,1,0,67.77,67.77A67.84,67.84,0,0,0,100,32Z"/><path class="cls-1" d="M100.15,155.75a56,56,0,1,1,56-56A56,56,0,0,1,100.15,155.75Zm0-111a55,55,0,1,0,55,55A55,55,0,0,0,100.15,44.79Zm26.39,88h-1.91l.43-.75a7.15,7.15,0,0,0,1-3.59v-56a7.15,7.15,0,0,0-1-3.59l-.43-.75h1.91a4.34,4.34,0,0,1,4.33,4.34v56A4.34,4.34,0,0,1,126.54,132.78Zm-.23-1h.23a3.34,3.34,0,0,0,3.33-3.34v-56a3.34,3.34,0,0,0-3.33-3.34h-.23a8,8,0,0,1,.73,3.34v56A8,8,0,0,1,126.31,131.78Zm-7.45,1H80.49a8.19,8.19,0,0,1-8.18-8.18V76.32a8.19,8.19,0,0,1,8.18-8.18h38.37a4.35,4.35,0,0,1,4.34,4.34v56A4.35,4.35,0,0,1,118.86,132.78ZM80.49,69.14a7.19,7.19,0,0,0-7.18,7.18V124.6a7.19,7.19,0,0,0,7.18,7.18h38.37a3.35,3.35,0,0,0,3.34-3.34v-56a3.35,3.35,0,0,0-3.34-3.34Z"/><path class="cls-1" d="M106.76,119.28c-7.37,0-14.65-6.77-18.34-10.82-4.3-4.19-9.46-10.57-9.45-17s2.54-7.89,4.86-9.38l.26-.17a2.86,2.86,0,0,1,3,.47c1.12,1,5.82,5.67,6,5.87a2.69,2.69,0,0,1,.58,3.7c-.76,1-2.26,2.68-3.22,3.72l.65,1.23a28.9,28.9,0,0,0,6.22,7.44,40,40,0,0,0,5.31,3.43c.69-.64,2.54-2.33,3.63-3.15a2.71,2.71,0,0,1,3.72.6c.35.36,4.9,4.9,5.85,6a2.87,2.87,0,0,1,.51,2.91l-.21.34c-1.49,2.32-3,4.72-9.36,4.86ZM85.21,82.63a1.82,1.82,0,0,0-.65.11l-.19.13c-2.2,1.41-4.27,2.74-4.4,8.55,0,6.13,5,12.27,9.17,16.35,3.6,3.94,10.63,10.51,17.61,10.51h0c5.8-.12,7.13-2.2,8.54-4.4l.17-.27h0a1.91,1.91,0,0,0-.38-1.79c-1-1.08-5.78-5.91-5.82-6l0,0c-.12-.14-1.19-1.34-2.37-.46s-3.71,3.23-3.81,3.33l-.26.24-.32-.17a42.79,42.79,0,0,1-5.78-3.71,29.58,29.58,0,0,1-6.46-7.71l-1-1.89.24-.26c1.59-1.71,2.82-3.12,3.4-3.9.9-1.21-.4-2.31-.46-2.36s-4.91-4.91-6-5.85A1.8,1.8,0,0,0,85.21,82.63Z"/></svg>