<?xml version="1.0" encoding="UTF-8"?>
<!DOCTYPE svg PUBLIC "-//W3C//DTD SVG 1.1//EN" "http://www.w3.org/Graphics/SVG/1.1/DTD/svg11.dtd">
<!-- Creator: CorelDRAW -->
<svg xmlns="http://www.w3.org/2000/svg" xml:space="preserve" width="2048px" height="2048px" style="shape-rendering:geometricPrecision; text-rendering:geometricPrecision; image-rendering:optimizeQuality; fill-rule:evenodd; clip-rule:evenodd"
viewBox="0 0 2048 2048"
 xmlns:xlink="http://www.w3.org/1999/xlink">
 <defs>
  <style type="text/css">

    .fil2 {fill:none}
    .fil1 {fill:rgb(255,105,180, 1)}
    .fil0 {fill:rgb(255,105,180, 1);fill-rule:nonzero}

  </style>
 </defs>
 <g id="Layer_x0020_1">
  <metadata id="CorelCorpID_0Corel-Layer"/>
  <g id="_246793304">
   <path id="_246793112" class="fil0" d="M539.705 674.985l129.639 -28.4126 18.1488 -39.5788 -0.0885827 -0.0885827c3.77717,-8.2382 10.6122,-14.1036 18.5433,-16.8721l14.8654 -6.35315 755.515 436.502c-23.4496,74.902 -51.9792,140.908 -83.1213,198.848l-879.731 -508.063 -0.157087 -1.97126 -0.0377953 0.00236221c-1.29213,-16.6051 10.3335,-31.2355 26.4236,-34.0122zm217.56 -106.883l254.184 -108.625 -0.0295276 -0.0696851c9.08741,-3.88347 18.9721,-3.23504 27.1358,0.93189l305.442 130.528 0.0755906 -0.0507874c8.50867,3.63662 14.6291,10.526 17.5335,18.5953l17.0398 37.1599 130.909 28.6914 0.100394 -0.00826772c16.4362,3.60236 27.1299,19.2414 24.8504,35.6315 -8.18741,103.524 -25.4575,195.873 -48.8445,278.049l-728.396 -420.834zm620.499 678.643c-40.278,69.8008 -84.0662,127.002 -126.411,173.241l-676.932 -391.024c-26.3221,-81.9308 -46.5685,-174.665 -57.4146,-279.323l860.757 497.106zm-148.952 197c-102.418,104.161 -190.748,144.039 -191.316,144.304l0.0354331 0.120473c-9.90001,4.62166 -20.9575,3.73701 -29.7236,-1.39252 -28.663,-13.8709 -283.374,-145.624 -417.623,-511.929l638.627 368.898z"/>
   <path id="_246793352" class="fil1" d="M1037.52 1789l0 0zm421.869 -1349.65l-420.834 -179.843c-8.16379,-4.16693 -18.0496,-4.81536 -27.137,-0.93189l0.0295276 0.0696851 -420.885 179.865c-7.93347,2.76732 -14.7732,8.63505 -18.5528,16.8756l0.0874016 0.0897638 -27.4713 59.9056 -184.603 40.4587c-16.0914,2.77677 -27.7158,17.4071 -26.4236,34.0122l0.0377953 -0.00236221c70.9312,910.593 654.397,1188.73 676.193,1198.84 8.40355,4.14095 18.5398,4.57559 27.6851,0.295276 2.52756,-1.16811 603.859,-272.79 676.668,-1197.25 2.27835,-16.389 -8.41418,-32.028 -24.8504,-35.6303l-0.100394 0.00826772 -185.873 -40.7374 -26.3622 -57.4867c-2.90551,-8.07048 -9.02481,-14.9587 -17.5335,-18.5953l-0.0755906 0.0507874zm-773.52 124.461l283.666 -121.224 -0.0295276 -0.0696851 29.3351 -12.5362c16.9547,-7.24607 35.5217,-6.23268 52.2863,0.93189l289.453 123.696 0.0755906 -0.0519685 15.9898 6.83386c15.7547,6.73347 26.9977,19.3146 34.0441,34.6819l10.389 22.6559 110.633 24.2481 0.100394 -0.00826772 4.69016 1.02756c32.3492,7.09016 53.3741,37.6713 49.8118,70.356 -10.3181,94.6737 -23.7709,191.603 -49.8792,283.342l-2.12717 7.47402 0.210236 0.121654 -2.68819 8.5878 -6.63189 23.3032 -0.582284 -0.336614c-21.7701,68.1166 -49.3595,134.326 -83.2264,197.334l-0.33189 0.617717 0.407481 0.23504 -7.78111 13.4823 -7.91339 14.7248 -0.437008 -0.252756c-35.7331,61.8874 -77.6505,120.193 -125.524,173.264l0.793701 0.458268 -17.1685 17.4602 -5.84056 6.37796 -0.274016 -0.158268 -5.6941 5.79095c-41.9114,42.6248 -88.4434,81.9745 -138.37,114.941 -11.798,7.79056 -24.6083,15.9036 -37.6111,23.2418l0.343701 1.16575 -24.9248 11.6362c-18.7524,8.75434 -40.2036,7.51064 -58.3217,-2.15551 -64.728,-34.5307 -123.001,-78.665 -176.033,-129.306 -116.231,-110.989 -201.41,-249.326 -256.573,-399.845l-30.3697 -82.8638 3.93898 2.27599c-23.9764,-82.3619 -39.6898,-167.02 -48.5315,-252.333l-1.04173 -10.0559 -0.311811 0.0188977 -0.944883 -12.1382 -4.16457 -40.1906 3.98032 2.29843c5.42245,-24.2079 24.9414,-43.617 50.1603,-49.1433l114.053 -24.9969 2.22166 -4.84607 -0.0874016 -0.0874016 9.27402 -20.2288c5.92205,-12.9165 15.8327,-22.7929 27.9827,-29.5099l-0.425197 -0.245669z"/>
  </g>
 </g>
 <rect class="fil2" width="2048" height="2048"/>
</svg>
