<?xml version="1.0" ?><svg fill="#ffffff" viewBox="-20 0 110 64" xmlns="http://www.w3.org/2000/svg"><g data-name="27-list" id="_27-list"><path d="M6,2a6,6,0,1,0,6,6A6.006,6.006,0,0,0,6,2ZM6,12a4,4,0,1,1,4-4A4,4,0,0,1,6,12Z"/><path d="M63,3H17a1,1,0,0,0-1,1v8a1,1,0,0,0,1,1H59a1,1,0,0,0,0-2H18V5H62v7a1,1,0,0,0,2,0V4A1,1,0,0,0,63,3Z"/><path d="M6,18a6,6,0,1,0,6,6A6.006,6.006,0,0,0,6,18ZM6,28a4,4,0,1,1,4-4A4,4,0,0,1,6,28Z"/><path d="M63,19H17a1,1,0,0,0-1,1v8a1,1,0,0,0,1,1H59a1,1,0,0,0,0-2H18V21H62v7a1,1,0,0,0,2,0V20A1,1,0,0,0,63,19Z"/><path d="M6,34a6,6,0,1,0,6,6A6.006,6.006,0,0,0,6,34ZM6,44a4,4,0,1,1,4-4A4,4,0,0,1,6,44Z"/><path d="M63,35H17a1,1,0,0,0-1,1v8a1,1,0,0,0,1,1H59a1,1,0,0,0,0-2H18V37H62v7a1,1,0,0,0,2,0V36A1,1,0,0,0,63,35Z"/><path d="M6,50a6,6,0,1,0,6,6A6.006,6.006,0,0,0,6,50ZM6,60a4,4,0,1,1,4-4A4,4,0,0,1,6,60Z"/><path d="M63,51H17a1,1,0,0,0-1,1v8a1,1,0,0,0,1,1H59a1,1,0,0,0,0-2H18V53H62v7a1,1,0,0,0,2,0V52A1,1,0,0,0,63,51Z"/></g></svg>