<?xml version="1.0" ?><svg data-name="Layer 1" fill="#ffffff" id="Layer_1" viewBox="0 0 602 552" xmlns="http://www.w3.org/2000/svg"><title/><path d="M464.57,274a5.69,5.69,0,0,0,5.69-5.69V208.54a5.69,5.69,0,0,0-5.69-5.69H404.8a5.69,5.69,0,0,0,0,11.38h46l-67,67,0,0-52.95,52.94,0,0-30.88,30.88L225.26,290.5l225.05-225v46a5.69,5.69,0,0,0,11.38,0V51.71A5.68,5.68,0,0,0,456,46H396.24a5.69,5.69,0,1,0,0,11.37h46l-225,225.06-51.81-51.81a5.69,5.69,0,0,0-8,0l-114,114a5.69,5.69,0,0,0,8,8.05L161.39,242.72l47.78,47.78L43.41,456.26a5.68,5.68,0,0,0,4,9.71H464.57a5.69,5.69,0,1,0,0-11.37H393.51v-167l65.37-65.38v46A5.69,5.69,0,0,0,464.57,274ZM299.91,378.89a5.69,5.69,0,0,0,4-1.67L329.14,352V454.6h-41.6V368.87l8.35,8.35A5.68,5.68,0,0,0,299.91,378.89ZM276.16,454.6H234.55V315.88l41.61,41.61Zm-53-150.1V454.6h-41.6V334.19l35.65-35.65Zm-53,150.1H128.58V387.18l41.61-41.61Zm-53-56.05V454.6h-56Zm264.92-60.28V454.6H340.52v-114L382.13,299Z"/><path d="M256,57.4h84.05a5.69,5.69,0,1,0,0-11.37H256a5.69,5.69,0,1,0,0,11.37Z"/><path d="M340.05,83H298a5.69,5.69,0,1,0,0,11.38h42a5.69,5.69,0,0,0,0-11.38Z"/></svg>
