<svg xmlns="http://www.w3.org/2000/svg" id="Layer_1" data-name="Layer 1" viewBox="0 0 200 200"><defs><style>.cls-1{fill:#ffffff;}</style></defs><title>Interface</title><path class="cls-1" d="M100,169.77A69.77,69.77,0,1,1,169.77,100,69.85,69.85,0,0,1,100,169.77Zm0-137.54A67.77,67.77,0,1,0,167.77,100,67.84,67.84,0,0,0,100,32.23Z"/><path class="cls-1" d="M100,156.13A56.13,56.13,0,1,1,156.13,100,56.19,56.19,0,0,1,100,156.13Zm0-111.26A55.13,55.13,0,1,0,155.13,100,55.19,55.19,0,0,0,100,44.87Zm24.43,90.53H75.57v-.5c0-12.62,7.86-16.31,13.61-19,2.21-1,4.12-1.93,5.07-3.12l.29-1.59c-4.9-2.68-8.05-8.63-8.05-15.29,0-9.22,6.06-16.72,13.51-16.72s13.51,7.5,13.51,16.72c0,6.59-3.1,12.52-7.93,15.23l.35,1.86c1,1.08,2.8,1.93,4.89,2.91,5.74,2.7,13.61,6.39,13.61,19Zm-47.86-1h46.85c-.2-11.59-7.6-15.06-13-17.6-2.26-1.06-4.21-2-5.32-3.26l-.09-.11-.53-2.85.33-.17c4.69-2.45,7.72-8.15,7.72-14.52,0-8.67-5.61-15.72-12.51-15.72s-12.51,7-12.51,15.72c0,6.44,3.07,12.16,7.84,14.57l.33.17-.48,2.56-.06.09c-1.07,1.43-3.13,2.4-5.52,3.52C84.18,119.34,76.78,122.81,76.57,134.4Zm64.45-13H123.29l-.15-.19c-3.27-4.26-7.8-6.39-11.11-7.94-.66-.31-1.39-.66-2-1l-.64-.33.53-.49a21.21,21.21,0,0,0,6.49-15.62c0-8.85-5-16.62-12.17-18.9l-.46-.14.13-.47c1.9-6.68,7-11.16,12.73-11.16,7.45,0,13.52,7.5,13.52,16.72,0,6.59-3.11,12.53-7.94,15.23l.35,1.86c1,1.08,2.8,1.93,4.89,2.92,5.75,2.69,13.61,6.38,13.61,19Zm-17.24-1H140c-.21-11.58-7.61-15-13-17.6-2.26-1.06-4.21-2-5.32-3.26l-.08-.11-.54-2.85.33-.17c4.69-2.45,7.73-8.15,7.73-14.52,0-8.67-5.62-15.72-12.52-15.72-5.13,0-9.76,4-11.63,10,7.33,2.59,12.4,10.6,12.4,19.69a22.4,22.4,0,0,1-6.29,15.86l1.39.66C115.81,114,120.38,116.13,123.78,120.45Zm-47.07,1H59V121c0-12.62,7.86-16.31,13.61-19,2.21-1,4.13-1.93,5.07-3.11l.29-1.6c-4.9-2.67-8-8.63-8-15.29,0-9.22,6.06-16.72,13.51-16.72,5.71,0,10.83,4.48,12.73,11.16l.14.46-.47.15C88.65,79.27,83.64,87,83.64,95.89a21.18,21.18,0,0,0,6.49,15.62l.53.48-.64.33c-.67.34-1.41.69-2.06,1-3.3,1.55-7.83,3.68-11.1,7.93Zm-16.73-1H76.22c3.4-4.32,8-6.47,11.32-8l1.39-.66a22.39,22.39,0,0,1-6.29-15.86c0-9.09,5.08-17.11,12.4-19.7-1.87-6-6.5-10-11.63-10-6.9,0-12.51,7-12.51,15.72,0,6.44,3.08,12.16,7.84,14.57l.33.17-.47,2.56-.07.09c-1.07,1.43-3.13,2.4-5.52,3.52C67.59,105.39,60.19,108.87,60,120.45Z"/></svg>