<?xml version="1.0" encoding="utf-8"?>
<!-- Generator: Adobe Illustrator 18.0.0, SVG Export Plug-In . SVG Version: 6.00 Build 0)  -->
<!DOCTYPE svg PUBLIC "-//W3C//DTD SVG 1.1//EN" "http://www.w3.org/Graphics/SVG/1.1/DTD/svg11.dtd">
<svg version="1.1" id="Layer_1" xmlns="http://www.w3.org/2000/svg" xmlns:xlink="http://www.w3.org/1999/xlink" x="0px" y="0px"
	 viewBox="0 0 38 38" enable-background="new 0 0 38 38" xml:space="preserve">
<g>
	<path fill="#354256" d="M29.3,31H8.7c-2.1,0-3.9-1.3-4.7-3.2C3.4,26,3,24,3,22c0-8.8,7.2-16,16-16s16,7.2,16,16
		c0,2-0.4,4.1-1.1,5.8C33.2,29.7,31.3,31,29.3,31z M19,8C11.3,8,5,14.3,5,22c0,1.8,0.3,3.6,0.9,5.1C6.4,28.2,7.5,29,8.7,29h20.6
		c1.2,0,2.4-0.8,2.8-1.9c0.6-1.6,0.9-3.4,0.9-5.1C33,14.3,26.7,8,19,8z"/>
</g>
<g>
	<g>
		<path fill="#354256" d="M14,15.1l-1.5-1.8l-0.8,0.6l1.5,1.8C13.5,15.5,13.7,15.3,14,15.1z"/>
	</g>
	<g>
		<path fill="#354256" d="M20,11h-1v2.5c0.3,0,0.7,0,1,0.1V11z"/>
	</g>
	<g>
		<path fill="#354256" d="M11.9,17.3l-2-1.2L9.4,17l2,1.2C11.5,17.8,11.7,17.5,11.9,17.3z"/>
	</g>
	<g>
		<path fill="#354256" d="M26.7,18.3L29,17l-0.5-0.9l-2.3,1.3C26.4,17.7,26.5,18,26.7,18.3z"/>
	</g>
	<g>
		<path fill="#354256" d="M10.7,20l-2.3-0.4l-0.2,1l2.3,0.4C10.6,20.7,10.6,20.4,10.7,20z"/>
	</g>
	<g>
		<path fill="#354256" d="M22.6,14.2l0.9-2.4l-0.9-0.3l-0.9,2.4C22,14,22.3,14.1,22.6,14.2z"/>
	</g>
	<g>
		<path fill="#354256" d="M27.5,21.1l2.7-0.5l-0.2-1l-2.7,0.5C27.4,20.4,27.5,20.8,27.5,21.1z"/>
	</g>
	<g>
		<path fill="#354256" d="M25,15.9l1.7-2l-0.8-0.6l-1.7,2C24.5,15.5,24.8,15.7,25,15.9z"/>
	</g>
	<g>
		<path fill="#354256" d="M16.7,13.8l-0.8-2.3l-0.9,0.3l0.8,2.3C16.1,14,16.4,13.9,16.7,13.8z"/>
	</g>
	<g>
		<path fill="#354256" d="M27.3,24l2.7,0.5l0.2-1L27.5,23C27.4,23.3,27.4,23.7,27.3,24z"/>
	</g>
	<g>
		<path fill="#354256" d="M10.5,23.1l-2.3,0.4l0.2,1l2.3-0.4C10.6,23.7,10.6,23.4,10.5,23.1z"/>
	</g>
</g>
<g>
	<line fill="#354256" x1="19" y1="21" x2="26.7" y2="13.3"/>
	<path fill="#354256" d="M19,22c-0.3,0-0.5-0.1-0.7-0.3c-0.4-0.4-0.4-1,0-1.4l7.7-7.7c0.4-0.4,1-0.4,1.4,0c0.4,0.4,0.4,1,0,1.4
		l-7.7,7.7C19.5,21.9,19.3,22,19,22z"/>
</g>
<g>
	<circle fill="#354256" cx="19" cy="21" r="2.5"/>
</g>
<g>
	<path fill="#354256" d="M23.1,27h-8.3c-0.5,0-0.9-0.4-0.9-0.9v-0.3c0-0.5,0.4-0.9,0.9-0.9h8.3c0.5,0,0.9,0.4,0.9,0.9v0.3
		C24,26.7,23.6,27,23.1,27z"/>
</g>
</svg>
