<?xml version="1.0" encoding="utf-8"?>
<!-- Generator: Adobe Illustrator 16.0.0, SVG Export Plug-In . SVG Version: 6.00 Build 0)  -->
<!DOCTYPE svg PUBLIC "-//W3C//DTD SVG 1.1//EN" "http://www.w3.org/Graphics/SVG/1.1/DTD/svg11.dtd">
<svg version="1.1" id="Layer_1" xmlns="http://www.w3.org/2000/svg" xmlns:xlink="http://www.w3.org/1999/xlink" x="0px" y="0px"
	 width="128px" height="128px" viewBox="0 0 128 128" enable-background="new 0 0 128 128" xml:space="preserve">
<g>
	<g>
		<path fill="#282D33" d="M116.288,92.838h-4V52.875c0-6.149-1.318-12.057-3.92-17.562l3.617-1.709
			c2.854,6.043,4.303,12.526,4.303,19.271V92.838z"/>
	</g>
	<g>
		<path fill="#282D33" d="M55.72,125.425c-29.468,0-44.409-10.964-44.409-32.587V52.875c0-6.837,1.486-13.402,4.418-19.512
			l3.606,1.73c-2.67,5.566-4.024,11.548-4.024,17.782v39.963c0,19.236,13.218,28.587,40.409,28.587V125.425z"/>
	</g>
	<g>
		<path fill="#282D33" d="M61.78,125.449h-9.539c-3.426,0-6.213-2.804-6.213-6.251s2.787-6.251,6.213-6.251h9.539
			c3.425,0,6.211,2.804,6.211,6.251S65.205,125.449,61.78,125.449z M52.241,116.947c-1.22,0-2.213,1.01-2.213,2.251
			s0.993,2.251,2.213,2.251h9.539c1.219,0,2.211-1.01,2.211-2.251s-0.992-2.251-2.211-2.251H52.241z"/>
	</g>
	<g>
		<g>
			<path fill="#282D33" d="M19.402,38.256c-1.359,0-2.694-0.376-3.86-1.089c-3.506-2.139-4.635-6.757-2.517-10.292
				c9.12-15.23,25.081-24.323,42.696-24.323h16.157c17.615,0,33.577,9.093,42.698,24.324c2.118,3.535,0.988,8.153-2.52,10.293
				c-1.161,0.711-2.495,1.088-3.856,1.088c-2.637,0-5.024-1.357-6.389-3.629C95.413,23.939,84.224,17.56,71.877,17.56H55.72
				c-12.342,0-23.532,6.379-29.933,17.065C24.448,36.864,22.001,38.256,19.402,38.256z M55.72,6.551
				c-16.195,0-30.873,8.366-39.264,22.378c-0.994,1.66-0.469,3.823,1.17,4.824c0.539,0.329,1.153,0.503,1.775,0.503
				c1.219,0,2.323-0.63,2.954-1.686c7.13-11.904,19.603-19.01,33.365-19.01h16.157c13.766,0,26.239,7.106,33.364,19.01
				c0.634,1.055,1.739,1.686,2.958,1.686c0.623,0,1.234-0.173,1.77-0.501c1.644-1.003,2.169-3.166,1.175-4.825
				C102.752,14.917,88.072,6.551,71.877,6.551H55.72z"/>
		</g>
	</g>
	<g>
		<g>
			<path fill="#282D33" d="M15.572,101.688C6.985,101.688,0,94.644,0,85.986V69.023c0-8.657,6.985-15.7,15.572-15.7v4
				C9.191,57.323,4,62.572,4,69.023v16.963c0,6.452,5.191,11.701,11.572,11.701V101.688z"/>
		</g>
		<g>
			<path fill="#282D33" d="M23.291,105.232h-5.095c-3.618,0-6.561-2.964-6.561-6.606v-41.96c0-3.643,2.943-6.606,6.561-6.606h5.095
				c3.618,0,6.562,2.963,6.562,6.606v41.96C29.853,102.269,26.909,105.232,23.291,105.232z M18.196,54.06
				c-1.412,0-2.561,1.169-2.561,2.606v41.96c0,1.438,1.149,2.606,2.561,2.606h5.095c1.413,0,2.562-1.169,2.562-2.606v-41.96
				c0-1.437-1.149-2.606-2.562-2.606H18.196z"/>
		</g>
	</g>
	<g>
		<g>
			<path fill="#282D33" d="M112.43,101.975v-4c6.38,0,11.57-5.251,11.57-11.705V69.307c0-6.454-5.19-11.704-11.57-11.704v-4
				c8.586,0,15.57,7.044,15.57,15.704V86.27C128,94.93,121.016,101.975,112.43,101.975z"/>
		</g>
		<g>
			<path fill="#282D33" d="M109.809,105.234h-5.096c-3.618,0-6.563-2.964-6.563-6.606V56.667c0-3.642,2.944-6.604,6.563-6.604h5.096
				c3.617,0,6.56,2.962,6.56,6.604v41.961C116.368,102.271,113.426,105.234,109.809,105.234z M104.713,54.063
				c-1.413,0-2.563,1.168-2.563,2.604v41.961c0,1.438,1.149,2.606,2.563,2.606h5.096c1.411,0,2.56-1.169,2.56-2.606V56.667
				c0-1.436-1.148-2.604-2.56-2.604H104.713z"/>
		</g>
	</g>
</g>
</svg>
